<svg xmlns="http://www.w3.org/2000/svg" xmlns:xlink="http://www.w3.org/1999/xlink" width="40" zoomAndPan="magnify" viewBox="0 0 30 30.000001" height="40" preserveAspectRatio="xMidYMid meet" version="1.0"><defs><filter x="0%" y="0%" width="100%" height="100%" id="d2f2fe6bf9"><feColorMatrix values="0 0 0 0 1 0 0 0 0 1 0 0 0 0 1 0 0 0 1 0" color-interpolation-filters="sRGB"/></filter><clipPath id="93598403c8"><path d="M 26.941406 7.820312 L 27.285156 7.820312 L 27.285156 8.140625 L 26.941406 8.140625 Z M 26.941406 7.820312 " clip-rule="nonzero"/></clipPath><clipPath id="101994ee43"><path d="M 27.265625 8.054688 C 26.613281 8.273438 27.195312 7.839844 27.195312 7.839844 " clip-rule="nonzero"/></clipPath><mask id="4b06777aa4"><g filter="url(#d2f2fe6bf9)"><rect x="-3" width="36" fill="#000000" y="-3" height="36.000001" fill-opacity="0.01"/></g></mask><clipPath id="681f3ce659"><path d="M 0.941406 0.820312 L 1.285156 0.820312 L 1.285156 1.140625 L 0.941406 1.140625 Z M 0.941406 0.820312 " clip-rule="nonzero"/></clipPath><clipPath id="e75ab7c939"><path d="M 1.265625 1.054688 C 0.613281 1.273438 1.195312 0.839844 1.195312 0.839844 " clip-rule="nonzero"/></clipPath><clipPath id="e88c7754ad"><rect x="0" width="2" y="0" height="2"/></clipPath><clipPath id="e7fa8a157b"><path d="M 14 0.535156 L 18 0.535156 L 18 3 L 14 3 Z M 14 0.535156 " clip-rule="nonzero"/></clipPath><clipPath id="95cadc483f"><path d="M 7.28125 2.9375 L 24.675781 2.9375 L 24.675781 28.835938 L 7.28125 28.835938 Z M 7.28125 2.9375 " clip-rule="nonzero"/></clipPath><clipPath id="923a980cb8"><path d="M 9.511719 2.9375 L 24.675781 2.9375 L 24.675781 28.835938 L 9.511719 28.835938 Z M 9.511719 2.9375 " clip-rule="nonzero"/></clipPath></defs><g clip-path="url(#93598403c8)"><g clip-path="url(#101994ee43)"><g mask="url(#4b06777aa4)"><g transform="matrix(1, 0, 0, 1, 26, 7)"><g clip-path="url(#e88c7754ad)"><g clip-path="url(#681f3ce659)"><g clip-path="url(#e75ab7c939)"><rect x="-32.6" width="43.2" fill="#0571d3" height="43.200001" y="-13.6" fill-opacity="1"/></g></g></g></g></g></g></g><g clip-path="url(#e7fa8a157b)"><path fill="#9c3d9e" d="M 16.972656 0.625 C 17.042969 0.589844 17.109375 0.546875 17.1875 0.546875 C 17.261719 0.542969 17.347656 0.59375 17.355469 0.671875 C 17.359375 0.71875 17.332031 0.761719 17.308594 0.804688 C 16.882812 1.519531 16.457031 2.238281 16.03125 2.953125 C 15.882812 2.140625 15.335938 1.476562 14.804688 0.855469 C 15.539062 0.914062 16.316406 0.96875 16.972656 0.625 " fill-opacity="1" fill-rule="nonzero"/></g><g clip-path="url(#95cadc483f)"><path fill="#9c3d9e" d="M 24.382812 22.429688 C 22.652344 29.648438 13.058594 31.023438 8.957031 25.242188 C 3.746094 17.894531 12 8.792969 16.015625 2.953125 C 19.78125 8.425781 26.117188 15.1875 24.382812 22.429688 " fill-opacity="1" fill-rule="nonzero"/></g><path fill="#ef38a3" d="M 16.015625 2.953125 C 15.90625 3.117188 15.789062 3.285156 15.667969 3.453125 C 15.902344 3.453125 16.136719 3.460938 16.371094 3.464844 C 16.25 3.292969 16.132812 3.121094 16.015625 2.953125 " fill-opacity="1" fill-rule="nonzero"/><path fill="#b253b0" d="M 12.871094 8.113281 C 12.953125 8.589844 13.378906 8.976562 13.847656 9.011719 C 14.316406 9.046875 14.789062 8.722656 14.9375 8.261719 C 15.054688 8.730469 15.484375 9.09375 15.949219 9.128906 C 16.417969 9.164062 16.894531 8.871094 17.082031 8.429688 C 17.242188 8.820312 17.660156 9.085938 18.074219 9.058594 C 18.488281 9.03125 18.867188 8.714844 18.980469 8.304688 C 19.089844 8.882812 19.800781 9.167969 20.34375 8.96875 C 19.015625 7.03125 17.585938 5.1875 16.371094 3.464844 C 16.136719 3.460938 15.902344 3.453125 15.667969 3.453125 C 14.539062 5.058594 13.144531 6.882812 11.816406 8.835938 C 12.253906 8.761719 12.660156 8.515625 12.871094 8.113281 " fill-opacity="1" fill-rule="nonzero"/><path fill="#c893cc" d="M 12.554688 26.535156 C 11.59375 26.003906 10.726562 25.253906 10.035156 24.277344 C 6.53125 19.335938 9.792969 13.511719 13.175781 8.691406 C 13.203125 8.71875 13.234375 8.746094 13.265625 8.773438 C 9.96875 14.097656 7.730469 20.019531 11.386719 25.175781 C 11.742188 25.675781 12.136719 26.128906 12.554688 26.535156 " fill-opacity="1" fill-rule="nonzero"/><path fill="#d5a2d6" d="M 13.265625 8.773438 C 13.234375 8.746094 13.203125 8.71875 13.175781 8.691406 C 13.695312 7.953125 14.214844 7.238281 14.714844 6.554688 C 14.21875 7.277344 13.730469 8.019531 13.265625 8.773438 " fill-opacity="1" fill-rule="nonzero"/><g clip-path="url(#923a980cb8)"><path fill="#84378d" d="M 16.015625 2.953125 C 15.980469 3.007812 15.945312 3.058594 15.90625 3.113281 C 19.703125 8.417969 25.28125 14.839844 23.640625 21.6875 C 22.074219 28.214844 14.078125 29.96875 9.53125 25.964844 C 13.886719 30.890625 22.726562 29.328125 24.382812 22.429688 C 26.117188 15.1875 19.78125 8.425781 16.015625 2.953125 " fill-opacity="1" fill-rule="nonzero"/></g><path fill="#84378d" d="M 14.921875 2.210938 L 17.035156 2.210938 C 17.148438 2.210938 17.242188 2.308594 17.242188 2.425781 L 17.242188 3.480469 C 17.242188 3.597656 17.148438 3.695312 17.035156 3.695312 L 14.921875 3.695312 C 14.808594 3.695312 14.714844 3.597656 14.714844 3.480469 L 14.714844 2.425781 C 14.714844 2.308594 14.808594 2.210938 14.921875 2.210938 " fill-opacity="1" fill-rule="nonzero"/></svg>