<svg xmlns="http://www.w3.org/2000/svg" xmlns:xlink="http://www.w3.org/1999/xlink" width="40" zoomAndPan="magnify" viewBox="0 0 30 30.000001" height="40" preserveAspectRatio="xMidYMid meet" version="1.0"><defs><filter x="0%" y="0%" width="100%" height="100%" id="9485db487e"><feColorMatrix values="0 0 0 0 1 0 0 0 0 1 0 0 0 0 1 0 0 0 1 0" color-interpolation-filters="sRGB"/></filter><clipPath id="7539e469db"><path d="M 26.941406 7.820312 L 27.285156 7.820312 L 27.285156 8.140625 L 26.941406 8.140625 Z M 26.941406 7.820312 " clip-rule="nonzero"/></clipPath><clipPath id="969a64d8e8"><path d="M 27.265625 8.054688 C 26.613281 8.273438 27.195312 7.839844 27.195312 7.839844 " clip-rule="nonzero"/></clipPath><mask id="9991a4dc88"><g filter="url(#9485db487e)"><rect x="-3" width="36" fill="#000000" y="-3" height="36.000001" fill-opacity="0.01"/></g></mask><clipPath id="0724af6868"><path d="M 0.941406 0.820312 L 1.285156 0.820312 L 1.285156 1.140625 L 0.941406 1.140625 Z M 0.941406 0.820312 " clip-rule="nonzero"/></clipPath><clipPath id="99aea601bb"><path d="M 1.265625 1.054688 C 0.613281 1.273438 1.195312 0.839844 1.195312 0.839844 " clip-rule="nonzero"/></clipPath><clipPath id="abf9971045"><rect x="0" width="2" y="0" height="2"/></clipPath><clipPath id="e2928f5ab3"><path d="M 15 1.453125 L 19 1.453125 L 19 7 L 15 7 Z M 15 1.453125 " clip-rule="nonzero"/></clipPath></defs><g clip-path="url(#7539e469db)"><g clip-path="url(#969a64d8e8)"><g mask="url(#9991a4dc88)"><g transform="matrix(1, 0, 0, 1, 26, 7)"><g clip-path="url(#abf9971045)"><g clip-path="url(#0724af6868)"><g clip-path="url(#99aea601bb)"><rect x="-32.6" width="43.2" fill="#0571d3" height="43.200001" y="-13.6" fill-opacity="1"/></g></g></g></g></g></g></g><path fill="#4477d3" d="M 13.160156 27.253906 C 11.585938 26.847656 10.25 26.25 9.140625 25.507812 C 1.34375 20.285156 4.785156 7.917969 16.308594 5.078125 C 17.1875 4.859375 18.125 5.039062 18.855469 5.574219 C 19.996094 6.410156 20.988281 7.355469 21.835938 8.371094 C 28.921875 16.886719 25.671875 30.480469 13.160156 27.253906 Z M 13.160156 27.253906 " fill-opacity="1" fill-rule="nonzero"/><g clip-path="url(#e2928f5ab3)"><path fill="#4477d3" d="M 17.339844 6.09375 C 17.339844 6.09375 18.359375 5.425781 17.902344 4.9375 C 17.441406 4.449219 18.214844 3.90625 18.246094 2.972656 C 18.261719 2.46875 18.285156 2.078125 18.304688 1.824219 C 18.316406 1.644531 18.171875 1.488281 17.988281 1.484375 C 17.238281 1.46875 15.523438 1.453125 15.617188 1.683594 C 15.734375 1.972656 15.890625 2.09375 15.890625 2.09375 C 15.890625 2.09375 15.9375 3.929688 16.417969 4.085938 C 16.894531 4.246094 17.0625 4.242188 16.988281 4.441406 C 16.914062 4.640625 16.835938 4.777344 16.9375 4.863281 C 17.039062 4.945312 16.222656 5.257812 16.648438 5.765625 C 17.074219 6.273438 17.339844 6.09375 17.339844 6.09375 Z M 17.339844 6.09375 " fill-opacity="1" fill-rule="nonzero"/></g><path fill="#5990e2" d="M 17.539062 9.808594 C 17.835938 9.351562 17.964844 8.757812 17.738281 8.265625 C 17.546875 7.855469 17.136719 7.578125 16.699219 7.441406 C 15.492188 7.058594 14.160156 7.039062 12.941406 7.378906 C 11.550781 7.769531 10.59375 8.601562 9.8125 9.785156 C 9.152344 10.777344 8.339844 11.71875 7.957031 12.867188 C 7.625 13.863281 7.734375 15.464844 9 15.75 C 9.402344 15.84375 9.820312 15.757812 10.207031 15.617188 C 11.28125 15.222656 12.058594 14.378906 12.839844 13.589844 C 13.558594 12.863281 14.414062 12.304688 15.25 11.730469 C 16.003906 11.210938 16.949219 10.636719 17.488281 9.886719 C 17.503906 9.859375 17.523438 9.835938 17.539062 9.808594 Z M 17.539062 9.808594 " fill-opacity="1" fill-rule="nonzero"/><path fill="#5990e2" d="M 8.570312 19.46875 C 8.546875 19.296875 8.511719 19.128906 8.480469 18.984375 C 8.332031 18.304688 8.09375 17.101562 7.324219 16.84375 C 7.019531 16.742188 6.667969 16.832031 6.414062 17.027344 C 5.652344 17.613281 5.695312 18.910156 5.925781 19.734375 C 6.160156 20.59375 6.859375 21.496094 7.855469 21.183594 C 8.601562 20.953125 8.660156 20.15625 8.570312 19.46875 Z M 8.570312 19.46875 " fill-opacity="1" fill-rule="nonzero"/><path fill="#2d5dc9" d="M 13.160156 27.253906 C 11.585938 26.847656 10.25 26.25 9.140625 25.507812 C 23.917969 27.398438 23.15625 14.816406 21.835938 8.371094 C 28.921875 16.886719 25.671875 30.480469 13.160156 27.253906 Z M 13.160156 27.253906 " fill-opacity="1" fill-rule="nonzero"/></svg>