<svg xmlns="http://www.w3.org/2000/svg" xmlns:xlink="http://www.w3.org/1999/xlink" width="40" zoomAndPan="magnify" viewBox="0 0 30 30.000001" height="40" preserveAspectRatio="xMidYMid meet" version="1.0"><defs><filter x="0%" y="0%" width="100%" height="100%" id="a1e460d955"><feColorMatrix values="0 0 0 0 1 0 0 0 0 1 0 0 0 0 1 0 0 0 1 0" color-interpolation-filters="sRGB"/></filter><clipPath id="ba1648ee2c"><path d="M 26.941406 7.820312 L 27.285156 7.820312 L 27.285156 8.140625 L 26.941406 8.140625 Z M 26.941406 7.820312 " clip-rule="nonzero"/></clipPath><clipPath id="16fadd6463"><path d="M 27.265625 8.054688 C 26.613281 8.273438 27.195312 7.839844 27.195312 7.839844 " clip-rule="nonzero"/></clipPath><mask id="5cfd9ee014"><g filter="url(#a1e460d955)"><rect x="-3" width="36" fill="#000000" y="-3" height="36.000001" fill-opacity="0.01"/></g></mask><clipPath id="87950fd722"><path d="M 0.941406 0.820312 L 1.285156 0.820312 L 1.285156 1.140625 L 0.941406 1.140625 Z M 0.941406 0.820312 " clip-rule="nonzero"/></clipPath><clipPath id="0e71b9c8ee"><path d="M 1.265625 1.054688 C 0.613281 1.273438 1.195312 0.839844 1.195312 0.839844 " clip-rule="nonzero"/></clipPath><clipPath id="3aafff2f36"><rect x="0" width="2" y="0" height="2"/></clipPath><clipPath id="ecf7075025"><path d="M 14 0.253906 L 17 0.253906 L 17 3 L 14 3 Z M 14 0.253906 " clip-rule="nonzero"/></clipPath><clipPath id="130008d875"><path d="M 6.464844 2 L 24.613281 2 L 24.613281 28.5625 L 6.464844 28.5625 Z M 6.464844 2 " clip-rule="nonzero"/></clipPath><clipPath id="35b7eedc8d"><path d="M 8 2 L 24.613281 2 L 24.613281 28.5625 L 8 28.5625 Z M 8 2 " clip-rule="nonzero"/></clipPath></defs><g clip-path="url(#ba1648ee2c)"><g clip-path="url(#16fadd6463)"><g mask="url(#5cfd9ee014)"><g transform="matrix(1, 0, 0, 1, 26, 7)"><g clip-path="url(#3aafff2f36)"><g clip-path="url(#87950fd722)"><g clip-path="url(#0e71b9c8ee)"><rect x="-32.6" width="43.2" fill="#0571d3" height="43.200001" y="-13.6" fill-opacity="1"/></g></g></g></g></g></g></g><g clip-path="url(#ecf7075025)"><path fill="#ee38a3" d="M 16.574219 0.355469 C 16.644531 0.320312 16.71875 0.277344 16.796875 0.273438 C 16.878906 0.273438 16.96875 0.320312 16.972656 0.398438 C 16.976562 0.449219 16.953125 0.492188 16.925781 0.535156 C 16.480469 1.25 16.039062 1.964844 15.59375 2.679688 C 15.441406 1.871094 14.867188 1.207031 14.3125 0.585938 C 15.078125 0.644531 15.890625 0.695312 16.574219 0.355469 " fill-opacity="1" fill-rule="nonzero"/></g><g clip-path="url(#130008d875)"><path fill="#ee38a3" d="M 24.304688 22.140625 C 22.5 29.351562 12.492188 30.726562 8.210938 24.949219 C 2.777344 17.609375 11.386719 8.515625 15.578125 2.679688 C 19.503906 8.148438 26.113281 14.90625 24.304688 22.140625 " fill-opacity="1" fill-rule="nonzero"/></g><path fill="#ee38a3" d="M 15.578125 2.679688 C 15.460938 2.84375 15.339844 3.011719 15.214844 3.179688 C 15.460938 3.179688 15.703125 3.1875 15.949219 3.191406 C 15.824219 3.019531 15.699219 2.847656 15.578125 2.679688 " fill-opacity="1" fill-rule="nonzero"/><path fill="#f05bb5" d="M 12.296875 7.835938 C 12.382812 8.3125 12.824219 8.699219 13.3125 8.734375 C 13.804688 8.769531 14.296875 8.445312 14.449219 7.988281 C 14.574219 8.453125 15.019531 8.816406 15.507812 8.851562 C 15.996094 8.886719 16.492188 8.59375 16.6875 8.152344 C 16.859375 8.542969 17.292969 8.804688 17.722656 8.78125 C 18.15625 8.753906 18.550781 8.4375 18.671875 8.027344 C 18.78125 8.605469 19.527344 8.890625 20.09375 8.691406 C 18.707031 6.753906 17.214844 4.910156 15.949219 3.191406 C 15.703125 3.1875 15.460938 3.179688 15.214844 3.179688 C 14.035156 4.78125 12.578125 6.605469 11.195312 8.558594 C 11.652344 8.484375 12.074219 8.238281 12.296875 7.835938 " fill-opacity="1" fill-rule="nonzero"/><path fill="#f69bd0" d="M 11.96875 26.242188 C 10.964844 25.710938 10.0625 24.960938 9.339844 23.984375 C 5.683594 19.050781 9.085938 13.230469 12.613281 8.414062 C 12.644531 8.441406 12.675781 8.46875 12.707031 8.496094 C 9.269531 13.8125 6.9375 19.734375 10.75 24.882812 C 11.121094 25.382812 11.527344 25.835938 11.96875 26.242188 " fill-opacity="1" fill-rule="nonzero"/><path fill="#f8adda" d="M 12.707031 8.496094 C 12.675781 8.46875 12.644531 8.441406 12.613281 8.414062 C 13.15625 7.675781 13.699219 6.960938 14.21875 6.277344 C 13.703125 7.003906 13.195312 7.742188 12.707031 8.496094 " fill-opacity="1" fill-rule="nonzero"/><g clip-path="url(#35b7eedc8d)"><path fill="#d32c92" d="M 15.578125 2.679688 C 15.539062 2.734375 15.5 2.785156 15.464844 2.839844 C 19.421875 8.140625 25.242188 14.558594 23.53125 21.398438 C 21.898438 27.921875 13.554688 29.671875 8.808594 25.671875 C 13.359375 30.59375 22.578125 29.035156 24.304688 22.140625 C 26.113281 14.90625 19.503906 8.148438 15.578125 2.679688 " fill-opacity="1" fill-rule="nonzero"/></g><path fill="#d32c92" d="M 14.4375 1.941406 L 16.640625 1.941406 C 16.761719 1.941406 16.859375 2.035156 16.859375 2.152344 L 16.859375 3.207031 C 16.859375 3.324219 16.761719 3.421875 16.640625 3.421875 L 14.4375 3.421875 C 14.316406 3.421875 14.21875 3.324219 14.21875 3.207031 L 14.21875 2.152344 C 14.21875 2.035156 14.316406 1.941406 14.4375 1.941406 " fill-opacity="1" fill-rule="nonzero"/></svg>