<svg xmlns="http://www.w3.org/2000/svg" xmlns:xlink="http://www.w3.org/1999/xlink" width="40" zoomAndPan="magnify" viewBox="0 0 30 30.000001" height="40" preserveAspectRatio="xMidYMid meet" version="1.0"><defs><filter x="0%" y="0%" width="100%" height="100%" id="b10a6303a0"><feColorMatrix values="0 0 0 0 1 0 0 0 0 1 0 0 0 0 1 0 0 0 1 0" color-interpolation-filters="sRGB"/></filter><clipPath id="6dbcf2c9f9"><path d="M 5.363281 2.46875 L 23.453125 2.46875 L 23.453125 29.023438 L 5.363281 29.023438 Z M 5.363281 2.46875 " clip-rule="nonzero"/></clipPath><clipPath id="9649e22ee3"><path d="M 7.679688 2.46875 L 23.453125 2.46875 L 23.453125 29.023438 L 7.679688 29.023438 Z M 7.679688 2.46875 " clip-rule="nonzero"/></clipPath><clipPath id="a7467c8ed3"><path d="M 26.941406 7.820312 L 27.285156 7.820312 L 27.285156 8.140625 L 26.941406 8.140625 Z M 26.941406 7.820312 " clip-rule="nonzero"/></clipPath><clipPath id="dab6d8bfe5"><path d="M 27.265625 8.054688 C 26.613281 8.273438 27.195312 7.839844 27.195312 7.839844 " clip-rule="nonzero"/></clipPath><mask id="91298cc4b4"><g filter="url(#b10a6303a0)"><rect x="-3" width="36" fill="#000000" y="-3" height="36.000001" fill-opacity="0.01"/></g></mask><clipPath id="70fd50d05e"><path d="M 0.941406 0.820312 L 1.285156 0.820312 L 1.285156 1.140625 L 0.941406 1.140625 Z M 0.941406 0.820312 " clip-rule="nonzero"/></clipPath><clipPath id="d3ba06ccd2"><path d="M 1.265625 1.054688 C 0.613281 1.273438 1.195312 0.839844 1.195312 0.839844 " clip-rule="nonzero"/></clipPath><clipPath id="2aeb2bb8a7"><rect x="0" width="2" y="0" height="2"/></clipPath></defs><path fill="#fbc723" d="M 15.441406 0.09375 C 15.511719 0.0585938 15.585938 0.015625 15.664062 0.015625 C 15.742188 0.0117188 15.832031 0.0625 15.839844 0.140625 C 15.84375 0.191406 15.816406 0.238281 15.792969 0.28125 C 15.347656 1.015625 14.90625 1.75 14.460938 2.484375 C 14.308594 1.648438 13.738281 0.96875 13.1875 0.332031 C 13.949219 0.394531 14.757812 0.445312 15.441406 0.09375 " fill-opacity="1" fill-rule="nonzero"/><g clip-path="url(#6dbcf2c9f9)"><path fill="#fbc723" d="M 23.144531 22.453125 C 21.347656 29.851562 11.371094 31.265625 7.105469 25.335938 C 1.6875 17.804688 10.269531 8.472656 14.445312 2.484375 C 18.363281 8.09375 24.949219 15.027344 23.144531 22.453125 " fill-opacity="1" fill-rule="nonzero"/></g><path fill="#ef38a3" d="M 14.445312 2.484375 C 14.332031 2.652344 14.210938 2.820312 14.085938 2.996094 C 14.328125 2.996094 14.574219 3.003906 14.816406 3.007812 C 14.691406 2.832031 14.566406 2.65625 14.445312 2.484375 " fill-opacity="1" fill-rule="nonzero"/><path fill="#f9da61" d="M 11.175781 7.773438 C 11.261719 8.261719 11.703125 8.660156 12.191406 8.695312 C 12.679688 8.730469 13.167969 8.398438 13.324219 7.925781 C 13.449219 8.40625 13.890625 8.777344 14.378906 8.816406 C 14.863281 8.851562 15.359375 8.550781 15.554688 8.097656 C 15.722656 8.5 16.15625 8.769531 16.585938 8.742188 C 17.015625 8.714844 17.414062 8.390625 17.53125 7.972656 C 17.640625 8.5625 18.382812 8.855469 18.945312 8.652344 C 17.566406 6.664062 16.078125 4.773438 14.816406 3.007812 C 14.574219 3.003906 14.328125 2.996094 14.085938 2.996094 C 12.910156 4.640625 11.457031 6.511719 10.078125 8.515625 C 10.53125 8.4375 10.957031 8.1875 11.175781 7.773438 " fill-opacity="1" fill-rule="nonzero"/><path fill="#ffffff" d="M 10.847656 26.660156 C 9.847656 26.117188 8.945312 25.347656 8.226562 24.347656 C 4.582031 19.28125 7.976562 13.3125 11.492188 8.367188 C 11.523438 8.394531 11.554688 8.421875 11.585938 8.449219 C 8.15625 13.90625 5.832031 19.980469 9.632812 25.269531 C 10.003906 25.78125 10.410156 26.246094 10.847656 26.660156 " fill-opacity="1" fill-rule="nonzero"/><path fill="#fde18b" d="M 10.847656 26.660156 C 9.847656 26.117188 8.945312 25.347656 8.226562 24.347656 C 4.582031 19.28125 7.976562 13.3125 11.492188 8.367188 C 11.523438 8.394531 11.554688 8.421875 11.585938 8.449219 C 8.15625 13.90625 5.832031 19.980469 9.632812 25.269531 C 10.003906 25.78125 10.410156 26.246094 10.847656 26.660156 " fill-opacity="1" fill-rule="nonzero"/><path fill="#fcecae" d="M 11.585938 8.449219 C 11.554688 8.421875 11.523438 8.394531 11.492188 8.367188 C 12.03125 7.609375 12.574219 6.875 13.09375 6.175781 C 12.578125 6.917969 12.070312 7.675781 11.585938 8.449219 " fill-opacity="1" fill-rule="nonzero"/><g clip-path="url(#9649e22ee3)"><path fill="#ebb716" d="M 14.445312 2.484375 C 14.410156 2.535156 14.371094 2.589844 14.332031 2.644531 C 18.28125 8.085938 24.082031 14.671875 22.375 21.695312 C 20.746094 28.386719 12.429688 30.179688 7.699219 26.078125 C 12.234375 31.128906 21.425781 29.527344 23.144531 22.453125 C 24.949219 15.027344 18.363281 8.09375 14.445312 2.484375 " fill-opacity="1" fill-rule="nonzero"/></g><path fill="#ebb716" d="M 13.308594 1.722656 L 15.507812 1.722656 C 15.625 1.722656 15.722656 1.820312 15.722656 1.941406 L 15.722656 3.023438 C 15.722656 3.144531 15.625 3.242188 15.507812 3.242188 L 13.308594 3.242188 C 13.191406 3.242188 13.09375 3.144531 13.09375 3.023438 L 13.09375 1.941406 C 13.09375 1.820312 13.191406 1.722656 13.308594 1.722656 " fill-opacity="1" fill-rule="nonzero"/><g clip-path="url(#a7467c8ed3)"><g clip-path="url(#dab6d8bfe5)"><g mask="url(#91298cc4b4)"><g transform="matrix(1, 0, 0, 1, 26, 7)"><g clip-path="url(#2aeb2bb8a7)"><g clip-path="url(#70fd50d05e)"><g clip-path="url(#d3ba06ccd2)"><rect x="-32.6" width="43.2" fill="#0571d3" height="43.200001" y="-13.6" fill-opacity="1"/></g></g></g></g></g></g></g></svg>