<svg xmlns="http://www.w3.org/2000/svg" xmlns:xlink="http://www.w3.org/1999/xlink" width="40" zoomAndPan="magnify" viewBox="0 0 30 30.000001" height="40" preserveAspectRatio="xMidYMid meet" version="1.0"><defs><clipPath id="337f2f1a3c"><path d="M 0.484375 0.394531 L 28 0.394531 L 28 27 L 0.484375 27 Z M 0.484375 0.394531 " clip-rule="nonzero"/></clipPath></defs><g clip-path="url(#337f2f1a3c)"><path fill="#add8e6" d="M 23.488281 16.976562 C 23.488281 17.398438 23.148438 17.738281 22.726562 17.738281 C 22.308594 17.738281 21.617188 17.265625 21.617188 16.84375 C 21.617188 16.425781 22.308594 16.21875 22.726562 16.21875 C 23.148438 16.21875 23.488281 16.558594 23.488281 16.976562 Z M 25.832031 10.660156 C 25.007812 11.136719 23.636719 11.496094 23.386719 11.0625 C 23.136719 10.628906 24.101562 9.574219 24.929688 9.097656 C 25.753906 8.621094 26.628906 8.582031 26.875 9.015625 C 27.125 9.449219 26.660156 10.183594 25.832031 10.660156 Z M 9.179688 1.398438 C 9.40625 2.015625 9.484375 2.988281 9.164062 3.109375 C 8.839844 3.226562 8.234375 2.445312 8.007812 1.828125 C 7.78125 1.210938 7.859375 0.617188 8.183594 0.496094 C 8.503906 0.378906 8.949219 0.78125 9.179688 1.398438 Z M 20.230469 15.3125 C 22.480469 17.324219 19.671875 16.839844 19.777344 17.617188 C 20.585938 23.449219 29.464844 23.851562 27.347656 26.230469 C 25.226562 28.613281 22.925781 20.492188 16.71875 20.769531 C 10.554688 20.808594 12.671875 28.054688 9.332031 26.738281 C 6.636719 25.253906 11.804688 22.65625 8.796875 18.550781 C 6.042969 14.832031 0.6875 18.925781 0.597656 15.898438 C 0.507812 12.875 6.902344 17.757812 9.441406 11.324219 C 11.851562 7.789062 8.675781 5.796875 10.210938 5.402344 C 11.746094 5.007812 10.769531 8.625 14.484375 9.390625 C 15.871094 9.675781 16.851562 6.539062 18.160156 7.410156 C 19.46875 8.277344 17.921875 9.878906 18.546875 11.125 C 19.332031 12.691406 21.597656 10.417969 22.183594 11.800781 C 22.765625 13.183594 19.550781 14.15625 20.230469 15.3125 C 20.933594 15.3125 23.082031 15.3125 20.230469 15.3125 Z M 20.230469 15.3125 " fill-opacity="1" fill-rule="nonzero"/></g></svg>