<svg xmlns="http://www.w3.org/2000/svg" xmlns:xlink="http://www.w3.org/1999/xlink" width="40" zoomAndPan="magnify" viewBox="0 0 30 30.000001" height="40" preserveAspectRatio="xMidYMid meet" version="1.0"><defs><clipPath id="ebf894b2b5"><path d="M 1 2.035156 L 29.21875 2.035156 L 29.21875 26.710938 L 1 26.710938 Z M 1 2.035156 " clip-rule="nonzero"/></clipPath></defs><g clip-path="url(#ebf894b2b5)"><path fill="#add8e6" d="M 4.757812 7.386719 C 3.910156 7.386719 3.003906 7.320312 2.273438 7.78125 C 1.171875 8.476562 0.914062 10.136719 1.300781 11.441406 C 1.6875 12.75 2.554688 13.816406 3.296875 14.933594 C 4.035156 16.050781 4.691406 17.359375 4.554688 18.722656 C 4.464844 19.613281 4.039062 20.445312 4.007812 21.339844 C 3.960938 22.570312 4.675781 23.71875 5.597656 24.449219 C 6.523438 25.179688 7.636719 25.566406 8.730469 25.941406 C 10.222656 26.453125 11.804688 26.96875 13.332031 26.59375 C 15.945312 25.953125 17.578125 22.933594 20.167969 22.199219 C 21.917969 21.703125 23.828125 22.34375 25.566406 21.808594 C 27.441406 21.230469 28.792969 19.308594 29.15625 17.25 C 29.515625 15.191406 29.007812 13.042969 28.113281 11.183594 C 27.214844 9.320312 25.953125 7.699219 24.695312 6.09375 C 23.652344 4.757812 22.53125 3.359375 21 2.769531 C 19.167969 2.058594 17.085938 2.589844 15.320312 3.277344 C 14.152344 3.730469 13.191406 4.59375 12.136719 5.269531 C 11.007812 5.996094 9.726562 6.523438 8.457031 6.878906 C 7.25 7.214844 6.003906 7.390625 4.757812 7.386719 " fill-opacity="1" fill-rule="nonzero"/></g></svg>