<svg xmlns="http://www.w3.org/2000/svg" xmlns:xlink="http://www.w3.org/1999/xlink" width="40" zoomAndPan="magnify" viewBox="0 0 30 30.000001" height="40" preserveAspectRatio="xMidYMid meet" version="1.0"><defs><clipPath id="bcb7677a4c"><path d="M 1 5 L 28 5 L 28 26.328125 L 1 26.328125 Z M 1 5 " clip-rule="nonzero"/></clipPath><clipPath id="ffc847f24b"><path d="M 12 25 L 14 25 L 14 26.328125 L 12 26.328125 Z M 12 25 " clip-rule="nonzero"/></clipPath><clipPath id="112db28305"><path d="M 22 25 L 24 25 L 24 26.328125 L 22 26.328125 Z M 22 25 " clip-rule="nonzero"/></clipPath><clipPath id="4cd6d50612"><path d="M 27 14 L 29.515625 14 L 29.515625 16 L 27 16 Z M 27 14 " clip-rule="nonzero"/></clipPath><clipPath id="bd469e1046"><path d="M 6 24 L 8 24 L 8 26.328125 L 6 26.328125 Z M 6 24 " clip-rule="nonzero"/></clipPath><clipPath id="44e8080aa5"><path d="M 10 2.378906 L 13 2.378906 L 13 5 L 10 5 Z M 10 2.378906 " clip-rule="nonzero"/></clipPath><clipPath id="94c9f3ef13"><path d="M 28.066406 26.128906 L 29.515625 26.128906 L 29.515625 29.03125 L 28.066406 29.03125 Z M 28.066406 26.128906 " clip-rule="nonzero"/></clipPath></defs><g clip-path="url(#bcb7677a4c)"><path fill="#add8e6" d="M 12.6875 7.726562 C 12.6875 7.726562 12.789062 7.777344 12.945312 7.789062 C 13.203125 7.8125 13.597656 7.746094 13.871094 7.195312 C 14.3125 6.316406 15.171875 5.503906 16.191406 5.851562 C 17.210938 6.199219 16.746094 8.585938 17.742188 8.75 C 18.742188 8.910156 19.296875 8.75 19.78125 6.804688 C 20.269531 4.859375 22.378906 4.949219 23.515625 5.773438 C 24.652344 6.597656 24.121094 8.636719 23.121094 9.332031 C 22.125 10.027344 21.632812 12.417969 23.441406 11.976562 C 25.4375 11.488281 26.214844 12.523438 25.3125 14.496094 C 23.855469 17.695312 26.421875 15.910156 26.519531 17.511719 C 26.585938 18.671875 24.675781 18.8125 24.269531 19.273438 C 23.59375 20.039062 24.261719 20.996094 24.488281 21.171875 C 24.859375 21.453125 25.738281 22.148438 26.667969 22.355469 C 27.59375 22.5625 27.851562 24.578125 26.855469 25.25 C 25.855469 25.921875 24.445312 26.25 23.75 24.023438 C 23.054688 21.800781 21.015625 22.214844 20.34375 23.261719 C 19.671875 24.304688 18.398438 26.460938 17.214844 26.296875 C 16.035156 26.136719 15.433594 25.765625 14.550781 24.628906 C 13.664062 23.492188 11.65625 25.675781 10.46875 25.324219 C 9.496094 25.03125 9.265625 24.671875 9.289062 23.1875 C 9.308594 21.703125 7.164062 23.402344 6.429688 22.304688 C 5.820312 21.394531 7.0625 20.4375 6.855469 19.964844 C 6.390625 18.929688 4.75 19.691406 3.332031 20.117188 C 0.484375 20.976562 0.5625 16.996094 3.050781 17.332031 C 4.9375 17.585938 6.957031 17.808594 6.234375 16.210938 C 5.394531 14.363281 5.90625 13.640625 6.464844 12.902344 C 7.019531 12.160156 6.277344 11.164062 5.441406 10.164062 C 4.609375 9.167969 5.28125 8.171875 6.394531 8.40625 C 7.511719 8.640625 8.765625 10.226562 9.992188 9.113281 C 9.980469 9.105469 10.464844 6.792969 12.6875 7.726562 Z M 12.6875 7.726562 " fill-opacity="1" fill-rule="nonzero"/></g><path fill="#add8e6" d="M 18.632812 4.398438 C 18.632812 4.625 18.554688 4.820312 18.394531 4.976562 C 18.234375 5.136719 18.042969 5.21875 17.816406 5.21875 C 17.589844 5.21875 17.398438 5.136719 17.238281 4.976562 C 17.078125 4.820312 16.996094 4.625 16.996094 4.398438 C 16.996094 4.175781 17.078125 3.980469 17.238281 3.820312 C 17.398438 3.660156 17.589844 3.582031 17.816406 3.582031 C 18.042969 3.582031 18.234375 3.660156 18.394531 3.820312 C 18.554688 3.980469 18.632812 4.175781 18.632812 4.398438 Z M 18.632812 4.398438 " fill-opacity="1" fill-rule="nonzero"/><g clip-path="url(#ffc847f24b)"><path fill="#add8e6" d="M 13.996094 25.785156 C 13.996094 25.925781 13.945312 26.046875 13.84375 26.148438 C 13.742188 26.25 13.621094 26.296875 13.480469 26.296875 C 13.335938 26.296875 13.214844 26.25 13.113281 26.148438 C 13.011719 26.046875 12.964844 25.925781 12.964844 25.785156 C 12.964844 25.640625 13.011719 25.519531 13.113281 25.417969 C 13.214844 25.316406 13.335938 25.269531 13.480469 25.269531 C 13.621094 25.269531 13.742188 25.316406 13.84375 25.417969 C 13.945312 25.519531 13.996094 25.640625 13.996094 25.785156 Z M 13.996094 25.785156 " fill-opacity="1" fill-rule="nonzero"/></g><g clip-path="url(#112db28305)"><path fill="#add8e6" d="M 23.054688 25.808594 C 23.113281 25.957031 23.125 26.097656 23.09375 26.230469 C 23.0625 26.363281 23 26.449219 22.898438 26.488281 C 22.796875 26.527344 22.691406 26.507812 22.578125 26.429688 C 22.464844 26.351562 22.382812 26.238281 22.324219 26.089844 C 22.265625 25.941406 22.253906 25.800781 22.285156 25.667969 C 22.316406 25.535156 22.382812 25.449219 22.484375 25.410156 C 22.585938 25.371094 22.691406 25.390625 22.804688 25.46875 C 22.914062 25.546875 23 25.660156 23.054688 25.808594 Z M 23.054688 25.808594 " fill-opacity="1" fill-rule="nonzero"/></g><g clip-path="url(#4cd6d50612)"><path fill="#add8e6" d="M 28.878906 14.492188 C 29.054688 14.6875 29.160156 14.894531 29.191406 15.117188 C 29.222656 15.335938 29.171875 15.507812 29.039062 15.632812 C 28.90625 15.753906 28.730469 15.789062 28.511719 15.738281 C 28.292969 15.6875 28.097656 15.566406 27.921875 15.375 C 27.742188 15.179688 27.640625 14.972656 27.605469 14.75 C 27.574219 14.53125 27.625 14.359375 27.757812 14.238281 C 27.890625 14.113281 28.066406 14.078125 28.285156 14.128906 C 28.503906 14.179688 28.699219 14.300781 28.878906 14.492188 Z M 28.878906 14.492188 " fill-opacity="1" fill-rule="nonzero"/></g><g clip-path="url(#bd469e1046)"><path fill="#add8e6" d="M 7.304688 25.890625 C 7.035156 26.269531 6.574219 26.410156 6.285156 26.203125 C 5.992188 25.996094 5.96875 25.519531 6.246094 25.132812 C 6.511719 24.753906 7.296875 24.269531 7.589844 24.476562 C 7.878906 24.691406 7.578125 25.507812 7.304688 25.890625 Z M 7.304688 25.890625 " fill-opacity="1" fill-rule="nonzero"/></g><path fill="#add8e6" d="M 2.011719 12.765625 C 1.457031 12.484375 1.199219 11.871094 1.441406 11.386719 C 1.683594 10.90625 2.332031 10.742188 2.886719 11.023438 C 3.441406 11.304688 4.210938 12.289062 3.96875 12.773438 C 3.726562 13.253906 2.570312 13.046875 2.011719 12.765625 Z M 2.011719 12.765625 " fill-opacity="1" fill-rule="nonzero"/><g clip-path="url(#44e8080aa5)"><path fill="#add8e6" d="M 12.230469 3.019531 C 12.390625 3.441406 12.351562 4.34375 11.933594 4.507812 C 11.511719 4.667969 10.871094 4.03125 10.710938 3.609375 C 10.546875 3.191406 10.753906 2.71875 11.175781 2.554688 C 11.597656 2.394531 12.066406 2.601562 12.230469 3.019531 Z M 12.230469 3.019531 " fill-opacity="1" fill-rule="nonzero"/></g><g clip-path="url(#94c9f3ef13)"><path fill="#f9a8c9" d="M 29.625 28.304688 C 29.28125 28.304688 28.914062 28.277344 28.617188 28.464844 C 28.167969 28.75 28.066406 29.425781 28.222656 29.957031 C 28.378906 30.492188 28.730469 30.925781 29.03125 31.378906 C 29.332031 31.835938 29.597656 32.367188 29.542969 32.921875 C 29.507812 33.285156 29.332031 33.625 29.320312 33.992188 C 29.300781 34.492188 29.59375 34.960938 29.96875 35.257812 C 30.34375 35.554688 30.792969 35.710938 31.238281 35.863281 C 31.84375 36.074219 32.488281 36.28125 33.105469 36.128906 C 34.167969 35.871094 34.832031 34.636719 35.882812 34.339844 C 36.59375 34.136719 37.367188 34.398438 38.074219 34.179688 C 38.835938 33.945312 39.382812 33.160156 39.53125 32.324219 C 39.679688 31.484375 39.472656 30.609375 39.109375 29.851562 C 38.746094 29.09375 38.230469 28.433594 37.722656 27.777344 C 37.296875 27.234375 36.84375 26.664062 36.21875 26.425781 C 35.476562 26.136719 34.628906 26.351562 33.914062 26.632812 C 33.441406 26.816406 33.050781 27.167969 32.621094 27.445312 C 32.164062 27.738281 31.644531 27.953125 31.128906 28.097656 C 30.636719 28.234375 30.132812 28.308594 29.625 28.304688 " fill-opacity="1" fill-rule="nonzero"/></g></svg>